<svg xmlns="http://www.w3.org/2000/svg" viewBox="0 0 96 96" fill="none">
  <defs>
    <linearGradient id="ai-outline" x1="16" y1="14" x2="79" y2="80" gradientUnits="userSpaceOnUse">
      <stop stop-color="#174b90"/>
      <stop offset="1" stop-color="#29adb0"/>
    </linearGradient>
  </defs>
  <path
    d="M48 12c9.6 0 17.8 3.5 24.6 10.5 7 7.2 10.2 16.6 9.2 28.1-.8 9.5-3.7 18.4-8.8 26.6-2.2-5.4-4.6-10-7.3-13.9-3.9 6.1-9.8 12.1-17.7 18-7.8-5.9-13.7-11.9-17.6-18-2.7 3.9-5.1 8.5-7.3 13.9-5.1-8.2-8-17.1-8.8-26.6-1-11.5 2.2-20.9 9.2-28.1C30.2 15.5 38.4 12 48 12Z"
    stroke="url(#ai-outline)"
    stroke-width="5.5"
    stroke-linecap="round"
    stroke-linejoin="round"
  />
  <path d="M31 64 44 31.5 57 64" stroke="#174b90" stroke-width="5" stroke-linecap="round" stroke-linejoin="round"/>
  <path d="M37.4 50.2h12.9" stroke="#174b90" stroke-width="4.4" stroke-linecap="round"/>
  <path d="M58.8 36.5v27" stroke="#29adb0" stroke-width="5" stroke-linecap="round"/>
  <path d="M58.8 63.5 73 36.5" stroke="#29adb0" stroke-width="5" stroke-linecap="round" stroke-linejoin="round"/>
  <path d="M73 36.5v27" stroke="#29adb0" stroke-width="5" stroke-linecap="round"/>
  <path d="M31 71c5.7 5.3 11.5 8 17.5 8 5.8 0 11.6-2.7 17.5-8" stroke="#29adb0" stroke-width="4.2" stroke-linecap="round"/>
</svg>
